<?xml version="1.0" encoding="utf-8"?>
<!-- Generator: Adobe Illustrator 27.6.0, SVG Export Plug-In . SVG Version: 6.00 Build 0)  -->
<svg version="1.1" id="Layer_1" xmlns="http://www.w3.org/2000/svg" xmlns:xlink="http://www.w3.org/1999/xlink" x="0px" y="0px"
	 viewBox="0 0 390 312" style="enable-background:new 0 0 390 312;" xml:space="preserve">
<style type="text/css">
	.st0{fill:#FFFFFF;}
	.st1{fill:#1B4E27;}
</style>
<path class="st0" d="M216.02,204.26h5.24c1.14,0,2.06,0.33,2.77,0.99s1.07,1.45,1.07,2.39c0,1.29-0.67,2.25-2.01,2.87
	c0.59,0.27,1.15,0.99,1.68,2.16s1.04,2.28,1.54,3.32h-3.21c-0.19-0.39-0.52-1.12-1-2.21c-0.48-1.09-0.88-1.78-1.22-2.09
	s-0.7-0.46-1.09-0.46h-0.84v4.76h-2.92v-11.73H216.02z M218.94,206.41v2.67h1.54c0.49,0,0.88-0.12,1.17-0.35
	c0.29-0.23,0.43-0.56,0.43-0.99c0-0.88-0.56-1.33-1.67-1.33L218.94,206.41L218.94,206.41z"/>
<polygon class="st0" points="240.11,213.84 240.11,215.99 231.47,215.99 231.47,204.26 240,204.26 240,206.41 234.39,206.41 
	234.39,208.87 239.74,208.87 239.74,211.02 234.39,211.02 234.39,213.84 "/>
<path class="st0" d="M254.08,205.02v2.29c-1.56-0.7-2.79-1.05-3.72-1.05c-0.53,0-0.94,0.09-1.25,0.26c-0.31,0.18-0.47,0.41-0.47,0.7
	c0,0.22,0.11,0.44,0.34,0.64c0.22,0.2,0.77,0.46,1.64,0.78c0.87,0.32,1.56,0.62,2.08,0.89s0.97,0.66,1.35,1.16s0.57,1.13,0.57,1.89
	c0,1.09-0.41,1.95-1.24,2.59s-1.91,0.97-3.26,0.97c-1.46,0-2.86-0.38-4.23-1.13v-2.53c0.78,0.53,1.48,0.91,2.08,1.15
	c0.6,0.24,1.25,0.36,1.92,0.36c1.15,0,1.72-0.36,1.72-1.08c0-0.25-0.11-0.48-0.34-0.7s-0.78-0.48-1.66-0.8
	c-0.88-0.31-1.57-0.6-2.08-0.87c-0.51-0.27-0.95-0.65-1.33-1.15c-0.37-0.5-0.56-1.14-0.56-1.91c0-1.01,0.41-1.82,1.22-2.44
	s1.9-0.93,3.26-0.93C251.37,204.11,252.69,204.41,254.08,205.02"/>
<polygon class="st0" points="270.87,204.26 270.87,206.41 266.63,206.41 266.63,215.99 263.71,215.99 263.71,206.41 259.46,206.41 
	259.46,204.26 "/>
<path class="st0" d="M281.23,204.26l5.21,11.73h-3.14l-0.97-2.32h-5.25l-0.88,2.32h-3.1l4.74-11.73H281.23z M281.48,211.62
	l-1.9-4.56l-1.72,4.56H281.48z"/>
<path class="st0" d="M299.92,204.26h2.92v6.66c0,1.71-0.51,3.01-1.52,3.89c-1.01,0.88-2.46,1.33-4.34,1.33
	c-1.86,0-3.3-0.45-4.33-1.34c-1.03-0.9-1.54-2.18-1.54-3.86v-6.67h2.93V211c0,0.82,0.27,1.47,0.8,1.96s1.24,0.74,2.1,0.74
	c0.9,0,1.62-0.25,2.16-0.76c0.54-0.5,0.81-1.22,0.81-2.15L299.92,204.26L299.92,204.26z"/>
<path class="st0" d="M309.16,204.26h5.24c1.14,0,2.06,0.33,2.77,0.99s1.07,1.45,1.07,2.39c0,1.29-0.67,2.25-2.01,2.87
	c0.59,0.27,1.15,0.99,1.68,2.16s1.04,2.28,1.54,3.32h-3.21c-0.19-0.39-0.52-1.12-1-2.21c-0.48-1.09-0.88-1.78-1.22-2.09
	s-0.7-0.46-1.09-0.46h-0.84v4.76h-2.92L309.16,204.26L309.16,204.26z M312.08,206.41v2.67h1.54c0.49,0,0.88-0.12,1.17-0.35
	c0.29-0.23,0.43-0.56,0.43-0.99c0-0.88-0.56-1.33-1.67-1.33L312.08,206.41L312.08,206.41z"/>
<path class="st0" d="M331.44,204.26l5.21,11.73h-3.14l-0.97-2.32h-5.25l-0.88,2.32h-3.1l4.74-11.73H331.44z M331.68,211.62
	l-1.9-4.56l-1.72,4.56H331.68z"/>
<polygon class="st0" points="353.65,204.26 353.65,215.99 351.19,215.99 344.71,208.47 344.71,215.99 341.79,215.99 341.79,204.26 
	344.47,204.26 350.73,211.43 350.73,204.26 "/>
<polygon class="st0" points="370.65,204.26 370.65,206.41 366.41,206.41 366.41,215.99 363.49,215.99 363.49,206.41 359.24,206.41 
	359.24,204.26 "/>
<path class="st0" d="M6.97,178.23c0-2.09,1.94-4.93,5.08-4.93c3.28,0,5.22,2.24,6.12,4.78c0.89,2.54,1.64,4.18,5.37,4.18
	c4.33,0,8.36-3.88,8.36-9.1c0-6.42-4.48-12.54-6.42-17.32c-1.05-2.54-4.48-7.76-4.33-14.63c0-8.66,8.21-18.21,18.81-18.21
	c4.48,0,10.6,1.79,10.6,7.61c0,2.69-2.39,4.78-4.63,4.78c-1.79,0-4.03-1.04-5.07-3.58c-0.75-1.79-0.9-4.18-3.88-4.18
	c-2.99,0-7.31,4.03-7.31,9.4c0,5.52,4.48,11.79,5.37,13.88c0.9,1.79,5.67,9.11,5.67,17.02c0,11.64-9.4,18.66-19.7,18.66
	C12.35,186.59,6.97,183.16,6.97,178.23"/>
<path class="st0" d="M49.66,171.96c0-12.54,8.21-28.21,19.11-38.96c4.78-4.78,12.84-10,20-10c5.82,0,8.51,4.33,8.51,7.91
	c0,7.31-5.52,15.08-13.88,19.4c-8.06,4.03-16.12,5.67-21.64,6.12c-0.75,1.79-1.94,6.72-1.94,13.73c0,6.72,4.93,9.4,7.76,9.4
	c7.31,0,13.88-5.52,17.02-10.6c0.3-0.45,0.75-0.75,1.34-0.15l1.64,1.34c0.75,0.45,0.75,0.9,0.15,1.34
	c-3.73,5.22-12.69,15.08-24.18,15.08C53.84,186.59,49.66,181.81,49.66,171.96 M62.94,152.11c5.22,0.45,24.78-5.82,24.78-16.87
	c0-2.99-1.49-5.67-4.78-5.67C73.39,129.57,64.14,146.74,62.94,152.11"/>
<path class="st0" d="M99.96,185.1c-1.05,0-1.64-0.6-1.34-1.34l8.36-24.18c2.69-8.36,7.31-24.03,7.31-26.12
	c0-1.34-1.19-2.24-2.54-2.24c-2.99,0-9.7,6.72-11.79,9.25c-0.3,0.45-0.9,0.3-1.19,0l-1.49-1.49c-0.3-0.3-0.3-0.75,0-1.19
	c3.14-4.63,12.09-14.78,22.24-14.78c2.99,0,4.18,2.54,4.18,5.22c0.15,2.84-2.39,11.2-5.37,21.2l0.75,0.3
	c4.03-8.36,15.97-26.72,24.33-26.72c4.33,0,7.02,2.69,7.02,6.72c0,3.88-2.99,6.87-5.82,6.87c-1.34,0-2.54-0.3-3.73-1.49
	s-1.94-1.79-3.88-1.79c-4.03,0-12.39,12.84-18.36,22.69c-1.79,2.84-3.58,6.27-5.82,12.99l-4.93,15.08c-0.3,1.05-0.75,1.05-1.94,1.05
	h-5.99V185.1z"/>
<path class="st0" d="M202.06,123c0.6,0,0.75,0.75,0.45,1.34c-2.84,6.12-10.45,26.72-11.19,29.11c-0.9,2.54-7.16,21.05-7.16,22.39
	s0.75,1.79,1.64,1.79c1.79,0,9.4-7.76,10.45-9.11c0.45-0.45,0.9-0.75,1.19-0.3l1.34,1.49c0.45,0.45,0.6,0.75,0.3,1.19
	c-1.64,2.99-14.63,15.67-23.14,15.67c-1.79,0-3.13-0.6-3.13-2.54c0-2.24,1.49-6.87,7.17-22.69l-0.75-0.3
	c-6.27,9.55-21.34,25.52-31.94,25.52c-3.43,0-8.06-2.84-8.06-9.55c0-21.79,24.48-54.04,42.69-54.04c6.27,0,9.1,2.69,10.6,5.08
	l2.84-4.03c0.45-0.6,0.9-1.04,1.49-1.04h5.21V123z M183.25,148.98c2.09-4.33,3.58-8.06,3.58-12.39c0-4.03-1.49-8.81-7.01-8.81
	c-13.73,0-29.7,31.5-29.7,45.68c0,3.43,1.49,5.22,4.03,5.22C161.61,178.68,180.56,154.5,183.25,148.98"/>
<path class="st0" d="M208.03,132.56c-0.75,0-1.04-0.3-0.9-1.05l0.9-2.99c0.3-1.34,0.6-1.49,1.34-1.49h12.54
	c5.67-13.58,11.49-27.61,21.35-36.27c5.67-5.08,11.94-7.91,21.79-7.91c12.24,0,15.67,7.91,15.67,10.15c0,4.03-2.54,6.72-5.52,6.72
	c-5.22,0-6.57-3.73-6.57-6.27c0-1.49,0.3-2.99-0.9-4.18c-1.04-1.05-2.09-1.94-6.12-1.94c-3.88,0-7.46,1.34-11.19,4.63
	c-6.87,5.97-13.73,21.94-18.06,35.08h26.72c4.78,0,7.61-1.64,9.25-1.64c1.04,0,1.04,1.19-0.15,4.33l-16.27,40.75
	c-2.24,5.52-1.49,6.72,0.45,6.72c2.24,0,12.24-10.75,13.88-13.14c0.15-0.45,0.6-0.45,1.34,0.15l1.94,1.64
	c0.3,0.3,0.45,0.6,0.15,0.89c-1.49,2.39-17.17,19.85-26.72,19.85c-3.13,0-4.63-1.34-4.63-3.14c0-1.94,3.43-10.45,5.52-15.67
	l11.79-30.45c1.49-4.03-0.75-4.78-4.78-4.78H230.7c-3.73,8.81-7.91,22.24-13.88,38.36c-8.66,23.44-17.76,58.51-42.54,58.51
	c-7.31,0-11.49-4.93-11.49-9.4c0-3.13,2.69-5.82,5.97-6.12c3.28,0.15,5.52,3.14,5.82,5.52c0.15,2.24,1.64,4.33,5.08,4.33
	c11.64,0,18.21-27.76,25.82-50.01c6.72-19.55,11.34-32.54,14.63-41.2h-12.08V132.56z"/>
<path class="st0" d="M276.24,185.1c-1.64,0-1.94-0.3-1.64-1.34l10.6-27.62c3.58-9.25,7.76-20,7.76-22.54c0-1.49-0.6-2.54-2.24-2.54
	c-2.84,0-10,7.16-12.54,10c-0.45,0.45-0.89,0.45-1.49-0.15l-1.34-1.34c-0.6-0.6-0.75-0.9-0.3-1.49
	c2.24-2.69,13.28-15.08,24.03-15.08c3.43,0,4.78,2.54,4.78,4.48c0,4.63-6.42,18.81-7.61,22.24l0.6,0.3
	c4.48-7.16,20.75-27.02,34.03-27.02c4.48,0,7.46,2.24,7.46,6.12c0,6.57-3.43,14.33-8.36,26.42c-4.03,9.85-7.61,18.21-7.61,20.6
	c0,0.9,0.6,1.94,1.79,1.94c2.24,0,8.81-5.52,10.75-7.61c0.6-0.45,1.19-0.3,1.64,0.3l1.05,1.19c0.6,0.6,0.75,0.9,0.15,1.64
	c-1.79,2.39-13.88,12.99-23.88,12.99c-1.94,0-3.58-0.75-3.58-2.99c0-2.84,5.37-14.63,10-27.47c2.09-5.82,7.46-18.21,7.46-21.49
	c0-2.09-1.04-3.43-3.73-3.43c-5.82,0-20.6,13.73-27.17,24.33c-2.69,4.33-5.08,8.21-8.96,18.66l-3.73,10c-0.3,0.6-0.6,0.9-2.09,0.9
	L276.24,185.1L276.24,185.1z"/>
<path class="st0" d="M348.18,182.86c0-3.43,2.54-10.3,8.81-27.02l4.33-11.64c1.49-4.03,2.69-7.02,2.69-8.81
	c0-1.34-0.89-1.94-2.09-1.94c-2.54,0-9.55,8.06-11.94,10.45c-0.6,0.6-1.19,0.6-1.64,0.15l-1.19-1.34c-0.6-0.45-0.9-0.75-0.45-1.34
	c0.6-0.9,15.82-18.81,25.38-18.36c1.79,0,3.58,1.19,3.58,3.73c0,2.69-2.39,9.4-5.08,16.57L361.92,166
	c-2.09,5.52-2.69,8.81-2.69,9.85c0,1.34,0.45,2.24,1.64,2.54c3.13-0.6,11.2-9.11,11.94-10.45c0.3-0.45,0.9-0.45,1.64,0.3l1.19,1.04
	c0.6,0.75,0.75,1.04,0.3,1.79c-0.89,1.19-12.84,15.52-25.23,15.52C349.23,186.44,348.18,185.25,348.18,182.86"/>
<path class="st1" d="M364.32,117.47c-0.68-0.92-1.32-1.98-1.92-3.18s-0.73-2.34-0.4-3.44c0.46-1.54,1.81-3.14,4.05-4.8
	c2.23-1.66,4.55-3.42,6.97-5.27c2.41-1.85,4.24-3.66,5.49-5.44c1.21,0.36,2.15,1.21,2.82,2.55c0.67,1.34,0.81,2.67,0.42,3.99
	c-0.43,1.43-1.66,3.03-3.69,4.82s-4.32,3.62-6.85,5.49C368.67,114.05,366.37,115.82,364.32,117.47"/>
</svg>
